<?xml version="1.0" encoding="utf-8"?>
<!-- Generator: Adobe Illustrator 22.1.0, SVG Export Plug-In . SVG Version: 6.00 Build 0)  -->
<svg version="1.1" id="Layer_1" xmlns="http://www.w3.org/2000/svg" xmlns:xlink="http://www.w3.org/1999/xlink" x="0px" y="0px"
	 viewBox="0 0 768 512" style="enable-background:new 0 0 768 512;" xml:space="preserve">
<style type="text/css">
	.st0{fill:#FFFFFF;}
</style>
<g>
	<g>
		<path class="st0" d="M725.2,63.8H298.6c-23.6,0-42.7,19.1-42.7,42.7v298.7c0,23.5,19.1,42.6,42.7,42.6h426.7
			c23.5,0,42.7-19.1,42.7-42.7V106.5C767.9,82.9,748.8,63.8,725.2,63.8z M298.6,85.1h426.7c1.6,0,3,0.6,4.4,0.9
			c-37,33.8-159.5,145.9-202.3,184.5c-3.4,3-8.8,6.6-15.5,6.6s-12.1-3.6-15.5-6.6C453.6,231.9,331.1,119.8,294.1,86
			C295.6,85.7,297,85.1,298.6,85.1z M277.2,405.1V106.5c0-2.1,0.6-4,1.2-5.9c28.3,25.9,113.7,104.1,169.2,154.5
			c-55.3,47.4-140.7,128.4-169.2,155.6C277.9,408.9,277.2,407.1,277.2,405.1z M725.2,426.5H298.6c-1.7,0-3.2-0.6-4.8-1
			c29.4-28.1,115.5-109.6,169.7-156c7.1,6.4,13.5,12.3,18.6,16.9c8.8,7.9,19.1,12.1,29.8,12.1c10.7,0,21-4.2,29.8-12.1
			c5.1-4.6,11.6-10.4,18.6-16.9c54.3,46.4,140.3,127.9,169.7,156C728.5,425.9,726.9,426.5,725.2,426.5z M746.6,405.1
			c0,2-0.6,3.7-1.1,5.6C717,383.5,631.5,302.5,576.3,255c55.4-50.4,140.9-128.6,169.2-154.5c0.6,1.9,1.2,3.8,1.2,5.9v298.7H746.6z"
			/>
	</g>
</g>
<rect x="1" class="st0" width="21.3" height="512"/>
</svg>
